{
.appVersion = "3343";
.storedFileType = com.schriftgestaltung.glyphs;
.formatVersion = 3;
DisplayStrings = (
ABCDEFGHIJKLMNOPQRSTUVWXYZabcdefghijklmnopqrstuvwxyz,
"glisten glisten",
g,
"glib blitz slip",
"glib bold",
" HHRHHOOROO"
);
date = "2025-06-16 18:29:40 +0000";
familyName = "SuperbEllipse Proportional Sans";
fontMaster = (
{
id = m01;
metricValues = (
{
over = 16;
pos = 760;
},
{
over = 16;
pos = 700;
},
{
over = 16;
pos = 500;
},
{
over = -16;
},
{
over = -16;
pos = -212;
},
{
}
);
name = Regular;
userData = {
GSCornerRadius = 5;
};
}
);
glyphs = (
{
glyphname = A;
lastChange = "2025-06-26 18:28:40 +0000";
layers = (
{
.lastUpdate = 772655612.924;
layerId = m01;
shapes = (
{
closed = 1;
nodes = (
(340,700,l),
(258,700,l),
(20,0,l),
(102,0,l)
);
},
{
closed = 1;
nodes = (
(299,700,l),
(547,0,l),
(588,0,l),
(340,700,l)
);
},
{
closed = 1;
nodes = (
(447,304,l),
(447,335,l),
(183,335,l),
(183,304,l)
);
}
);
width = 608;
}
);
unicode = 65;
},
{
glyphname = B;
lastChange = "2025-06-26 18:28:40 +0000";
layers = (
{
.lastUpdate = 772655612.926;
layerId = m01;
shapes = (
{
closed = 1;
nodes = (
(315,0,l),
(425,0,o),
(535,51,o),
(535,188,cs),
(535,188,o),
(535,167,o),
(535,224,cs),
(535,328,o),
(415,406,o),
(305,406,c),
(119,405,l),
(119,376,l),
(305,376,l),
(402,376,o),
(452,303,o),
(452,232,cs),
(452,170,ls),
(452,83,o),
(430,30,o),
(315,30,c),
(137,30,l),
(139,0,l)
);
},
{
closed = 1;
nodes = (
(147,0,l),
(147,700,l),
(65,700,l),
(65,0,l)
);
},
{
closed = 0;
nodes = (
(65,264,l)
);
},
{
closed = 1;
nodes = (
(275,376,l),
(365,376,o),
(495,395,o),
(495,533,cs),
(495,633,o),
(453,701,o),
(305,701,c),
(119,700,l),
(104,671,l),
(305,671,l),
(372,671,o),
(412,630,o),
(412,558,cs),
(412,502,ls),
(412,455,o),
(370,406,o),
(275,406,c),
(137,406,l),
(139,376,l)
);
}
);
width = 575;
}
);
unicode = 66;
},
{
glyphname = C;
lastChange = "2025-06-26 18:28:40 +0000";
layers = (
{
.lastUpdate = 772655612.926;
layerId = m01;
shapes = (
{
closed = 1;
nodes = (
(609,223,l),
(599,69,o),
(523,14,o),
(380,14,cs),
(243,14,o),
(113,91,o),
(113,304,cs),
(113,386,ls),
(113,598,o),
(243,685,o),
(380,685,cs),
(508,685,o),
(609,620,o),
(609,466,c),
(689,466,l),
(679,647,o),
(519,715,o),
(380,715,cs),
(230,715,o),
(30,623,o),
(30,368,cs),
(30,332,ls),
(30,75,o),
(230,-16,o),
(380,-16,cs),
(516,-16,o),
(676,49,o),
(686,223,c)
);
}
);
width = 719;
}
);
unicode = 67;
},
{
glyphname = D;
lastChange = "2025-06-26 18:28:40 +0000";
layers = (
{
.lastUpdate = 772655612.927;
layerId = m01;
shapes = (
{
closed = 1;
nodes = (
(147,0,l),
(147,700,l),
(65,700,l),
(65,0,l)
);
},
{
closed = 0;
nodes = (
(65,264,l)
);
},
{
closed = 1;
nodes = (
(260,30,l),
(137,30,l),
(139,0,l),
(260,0,l)
);
},
{
closed = 1;
nodes = (
(260,701,l),
(119,700,l),
(104,671,l),
(260,671,l)
);
},
{
closed = 0;
nodes = (
(65,264,l)
);
},
{
closed = 1;
nodes = (
(376,670,o),
(525,599,o),
(525,388,cs),
(525,306,ls),
(525,94,o),
(376,31,o),
(260,30,c),
(260,0,l),
(390,1,o),
(608,78,o),
(608,334,cs),
(608,370,ls),
(608,624,o),
(390,700,o),
(260,701,c),
(260,671,l)
);
}
);
width = 638;
}
);
unicode = 68;
},
{
glyphname = E;
lastChange = "2025-06-26 18:28:40 +0000";
layers = (
{
.lastUpdate = 772655612.927;
layerId = m01;
shapes = (
{
closed = 1;
nodes = (
(147,0,l),
(147,669,l),
(505,669,l),
(505,700,l),
(147,700,l),
(65,700,l),
(65,0,l)
);
},
{
closed = 1;
nodes = (
(505,0,l),
(505,31,l),
(147,31,l),
(147,0,l)
);
},
{
closed = 1;
nodes = (
(393,370,l),
(393,401,l),
(147,401,l),
(147,370,l)
);
}
);
width = 535;
}
);
unicode = 69;
},
{
glyphname = F;
lastChange = "2025-06-26 18:28:40 +0000";
layers = (
{
.lastUpdate = 772655612.928;
layerId = m01;
shapes = (
{
closed = 1;
nodes = (
(147,0,l),
(147,669,l),
(505,669,l),
(505,700,l),
(147,700,l),
(147,700,l),
(65,700,l),
(65,0,l)
);
},
{
closed = 1;
nodes = (
(423,300,l),
(423,331,l),
(147,331,l),
(147,300,l)
);
}
);
width = 535;
}
);
unicode = 70;
},
{
glyphname = G;
lastChange = "2025-06-26 18:28:40 +0000";
layers = (
{
.lastUpdate = 772655612.928;
layerId = m01;
shapes = (
{
closed = 0;
nodes = (
(60,264,l)
);
},
{
closed = 1;
nodes = (
(686,291,l),
(686,322,l),
(491,322,l),
(491,291,l)
);
},
{
closed = 1;
nodes = (
(609,291,l),
(609,90,o),
(523,14,o),
(380,14,cs),
(243,14,o),
(113,91,o),
(113,304,cs),
(113,386,ls),
(113,598,o),
(243,685,o),
(380,685,cs),
(508,685,o),
(609,620,o),
(609,466,c),
(689,466,l),
(679,647,o),
(519,715,o),
(380,715,cs),
(230,715,o),
(30,623,o),
(30,368,cs),
(30,332,ls),
(30,75,o),
(230,-16,o),
(380,-16,cs),
(516,-16,o),
(686,69,o),
(686,291,c)
);
},
{
closed = 1;
nodes = (
(609,291,l),
(686,291,l),
(686,291,l),
(609,291,l)
);
},
{
closed = 1;
nodes = (
(655,0,l),
(686,0,l),
(686,291,l),
(655,291,l)
);
}
);
width = 734;
}
);
unicode = 71;
},
{
glyphname = H;
lastChange = "2025-06-26 18:28:40 +0000";
layers = (
{
.lastUpdate = 772655612.928;
layerId = m01;
shapes = (
{
closed = 1;
nodes = (
(147,0,l),
(147,370,l),
(563,370,l),
(563,0,l),
(645,0,l),
(645,700,l),
(563,700,l),
(563,401,l),
(147,401,l),
(147,700,l),
(65,700,l),
(65,0,l)
);
}
);
width = 710;
}
);
unicode = 72;
},
{
glyphname = I;
lastChange = "2025-06-26 18:28:40 +0000";
layers = (
{
.lastUpdate = 772655612.929;
layerId = m01;
shapes = (
{
closed = 1;
nodes = (
(65,700,l),
(65,0,l),
(147,0,l),
(147,700,l)
);
}
);
width = 212;
}
);
unicode = 73;
},
{
glyphname = J;
lastChange = "2025-06-26 18:28:40 +0000";
layers = (
{
.lastUpdate = 772655612.929;
layerId = m01;
shapes = (
{
closed = 1;
nodes = (
(389,198,l),
(389,700,l),
(307,700,l),
(307,198,l)
);
},
{
closed = 1;
nodes = (
(307,182,ls),
(307,80,o),
(296,12,o),
(199,12,cs),
(129,12,o),
(98,59,o),
(98,135,c),
(20,135,l),
(20,29,o),
(112,-16,o),
(199,-16,cs),
(309,-16,o),
(389,36,o),
(389,181,cs),
(389,198,l),
(307,198,l)
);
}
);
width = 454;
}
);
unicode = 74;
},
{
glyphname = K;
lastChange = "2025-06-26 18:28:40 +0000";
layers = (
{
.lastUpdate = 772655612.929;
layerId = m01;
shapes = (
{
closed = 1;
nodes = (
(116,222,l),
(539,700,l),
(496,700,l),
(73,222,l)
);
},
{
closed = 1;
nodes = (
(65,700,l),
(65,0,l),
(147,0,l),
(147,700,l)
);
},
{
closed = 1;
nodes = (
(223,374,l),
(485,0,l),
(577,0,l),
(278,435,l)
);
}
);
width = 577;
}
);
unicode = 75;
},
{
glyphname = L;
lastChange = "2025-06-26 18:28:40 +0000";
layers = (
{
.lastUpdate = 772655612.93;
layerId = m01;
shapes = (
{
closed = 1;
nodes = (
(147,0,l),
(147,700,l),
(65,700,l),
(65,0,l)
);
},
{
closed = 1;
nodes = (
(505,0,l),
(505,31,l),
(147,31,l),
(147,0,l)
);
}
);
width = 535;
}
);
unicode = 76;
},
{
glyphname = M;
lastChange = "2025-06-26 18:28:40 +0000";
layers = (
{
.lastUpdate = 772655612.93;
layerId = m01;
shapes = (
{
closed = 1;
nodes = (
(797,0,l),
(797,700,l),
(715,700,l),
(715,0,l)
);
},
{
closed = 1;
nodes = (
(434,0,l),
(755,700,l),
(715,700,l),
(449,115,l),
(101,700,l),
(65,700,l),
(65,1,l),
(101,1,l),
(101,516,l),
(409,1,l)
);
}
);
width = 862;
}
);
unicode = 77;
},
{
glyphname = N;
lastChange = "2025-06-26 18:28:40 +0000";
layers = (
{
.lastUpdate = 772655612.931;
layerId = m01;
shapes = (
{
closed = 1;
nodes = (
(594,0,l),
(594,700,l),
(558,700,l),
(558,0,l)
);
},
{
closed = 1;
nodes = (
(559,132,l),
(101,700,l),
(65,700,l),
(65,1,l),
(101,1,l),
(101,559,l),
(558,0,l)
);
}
);
width = 659;
}
);
unicode = 78;
},
{
glyphname = O;
lastChange = "2025-06-26 18:28:40 +0000";
layers = (
{
.lastUpdate = 772655612.931;
layerId = m01;
shapes = (
{
closed = 1;
nodes = (
(530,-16,o),
(730,75,o),
(730,332,cs),
(730,368,ls),
(730,623,o),
(530,715,o),
(380,715,cs),
(230,715,o),
(30,623,o),
(30,368,cs),
(30,332,ls),
(30,75,o),
(230,-16,o),
(380,-16,cs)
);
},
{
closed = 1;
nodes = (
(243,14,o),
(113,91,o),
(113,304,cs),
(113,386,ls),
(113,598,o),
(243,685,o),
(380,685,cs),
(517,685,o),
(646,598,o),
(646,386,cs),
(646,304,ls),
(646,97,o),
(535,14,o),
(380,14,cs)
);
}
);
width = 760;
}
);
unicode = 79;
},
{
glyphname = P;
lastChange = "2025-06-26 18:28:40 +0000";
layers = (
{
.lastUpdate = 772655612.932;
layerId = m01;
shapes = (
{
closed = 1;
nodes = (
(65,700,l),
(65,0,l),
(147,0,l),
(147,700,l)
);
},
{
closed = 1;
nodes = (
(285,670,l),
(402,670,o),
(422,600,o),
(422,483,cs),
(422,456,ls),
(422,334,o),
(402,244,o),
(285,244,c),
(285,214,l),
(415,214,o),
(505,299,o),
(505,464,cs),
(505,626,o),
(415,700,o),
(285,700,c)
);
},
{
closed = 1;
nodes = (
(96,214,l),
(285,214,l),
(285,244,l),
(96,244,l)
);
},
{
closed = 1;
nodes = (
(96,670,l),
(285,670,l),
(285,700,l),
(96,700,l)
);
}
);
width = 535;
}
);
unicode = 80;
},
{
glyphname = Q;
lastChange = "2025-06-26 18:28:40 +0000";
layers = (
{
.lastUpdate = 772655612.932;
layerId = m01;
shapes = (
{
closed = 0;
nodes = (
(80,264,l)
);
},
{
closed = 1;
nodes = (
(329,-1,l),
(329,-17,ls),
(329,-163,o),
(432,-228,o),
(525,-228,cs),
(599,-228,o),
(677,-189,o),
(677,-99,c),
(591,-99,l),
(591,-162,o),
(566,-203,o),
(507,-203,cs),
(425,-203,o),
(432,-128,o),
(432,-17,cs),
(432,-1,l)
);
},
{
closed = 1;
nodes = (
(530,-16,o),
(730,75,o),
(730,332,cs),
(730,368,ls),
(730,623,o),
(530,715,o),
(380,715,cs),
(230,715,o),
(30,623,o),
(30,368,cs),
(30,332,ls),
(30,75,o),
(230,-16,o),
(380,-16,cs)
);
},
{
closed = 1;
nodes = (
(243,14,o),
(113,91,o),
(113,304,cs),
(113,386,ls),
(113,598,o),
(243,685,o),
(380,685,cs),
(517,685,o),
(646,598,o),
(646,386,cs),
(646,304,ls),
(646,97,o),
(535,14,o),
(380,14,cs)
);
}
);
width = 760;
}
);
unicode = 81;
},
{
glyphname = R;
lastChange = "2025-06-26 18:28:40 +0000";
layers = (
{
.lastUpdate = 772655612.933;
layerId = m01;
shapes = (
{
closed = 1;
nodes = (
(65,700,l),
(65,0,l),
(147,0,l),
(147,700,l)
);
},
{
closed = 1;
nodes = (
(96,264,l),
(285,264,l),
(285,294,l),
(96,294,l)
);
},
{
closed = 1;
nodes = (
(96,670,l),
(285,670,l),
(285,700,l),
(96,700,l)
);
},
{
closed = 1;
nodes = (
(431,0,l),
(523,0,l),
(353,282,l),
(267,279,l)
);
},
{
closed = 1;
nodes = (
(285,670,l),
(422,670,o),
(452,615,o),
(451,507,cs),
(451,483,ls),
(452,369,o),
(422,294,o),
(285,294,c),
(285,264,l),
(435,264,o),
(535,334,o),
(535,489,cs),
(535,641,o),
(435,700,o),
(285,700,c)
);
}
);
width = 575;
}
);
unicode = 82;
},
{
glyphname = S;
lastChange = "2025-06-26 18:28:40 +0000";
layers = (
{
.lastUpdate = 772655612.933;
layerId = m01;
shapes = (
{
closed = 1;
nodes = (
(483,545,l),
(483,691,o),
(327,716,o),
(264,716,cs),
(179,716,o),
(47,658,o),
(47,521,cs),
(47,413,o),
(181,363,o),
(225,340,cs),
(269,317,ls),
(307,297,o),
(458,224,o),
(458,133,cs),
(458,66,o),
(390,17,o),
(276,17,cs),
(176,17,o),
(104,78,o),
(104,187,c),
(30,187,l),
(30,41,o),
(182,-16,o),
(282,-16,cs),
(399,-16,o),
(514,46,o),
(514,162,cs),
(514,285,o),
(369,352,o),
(305,384,cs),
(265,404,ls),
(225,424,o),
(102,481,o),
(102,559,cs),
(102,627,o),
(175,684,o),
(264,684,cs),
(374,684,o),
(407,621,o),
(407,545,c)
);
}
);
width = 538;
}
);
unicode = 83;
},
{
glyphname = T;
lastChange = "2025-06-26 18:28:40 +0000";
layers = (
{
.lastUpdate = 772655612.933;
layerId = m01;
shapes = (
{
closed = 1;
nodes = (
(30,669,l),
(570,669,l),
(570,700,l),
(30,700,l)
);
},
{
closed = 1;
nodes = (
(260,0,l),
(342,0,l),
(342,700,l),
(260,700,l)
);
}
);
width = 600;
}
);
unicode = 84;
},
{
glyphname = U;
lastChange = "2025-06-26 18:28:40 +0000";
layers = (
{
.lastUpdate = 772655612.934;
layerId = m01;
shapes = (
{
closed = 0;
nodes = (
(60,264,l)
);
},
{
closed = 1;
nodes = (
(588,700,l),
(588,274,ls),
(588,68,o),
(465,20,o),
(340,20,cs),
(243,20,o),
(143,71,o),
(143,274,cs),
(143,700,l),
(60,700,l),
(60,292,ls),
(60,45,o),
(237,-16,o),
(336,-16,cs),
(457,-16,o),
(624,25,o),
(624,272,c),
(624,700,l)
);
}
);
width = 684;
}
);
unicode = 85;
},
{
glyphname = V;
lastChange = "2025-06-26 18:28:40 +0000";
layers = (
{
.lastUpdate = 772655612.934;
layerId = m01;
shapes = (
{
closed = 1;
nodes = (
(390,0,l),
(122,700,l),
(40,700,l),
(308,0,l)
);
},
{
closed = 1;
nodes = (
(348,0,l),
(390,0,l),
(660,700,l),
(618,700,l)
);
}
);
width = 700;
}
);
unicode = 86;
},
{
glyphname = W;
lastChange = "2025-06-26 18:28:40 +0000";
layers = (
{
.lastUpdate = 772655612.935;
layerId = m01;
shapes = (
{
closed = 1;
nodes = (
(340,0,l),
(122,700,l),
(40,700,l),
(258,0,l)
);
},
{
closed = 1;
nodes = (
(298,0,l),
(340,0,l),
(560,700,l),
(518,700,l)
);
},
{
closed = 1;
nodes = (
(778,0,l),
(560,700,l),
(498,636,l),
(696,0,l)
);
},
{
closed = 1;
nodes = (
(736,0,l),
(778,0,l),
(998,700,l),
(956,700,l)
);
}
);
width = 1038;
}
);
unicode = 87;
},
{
glyphname = X;
lastChange = "2025-06-26 18:28:40 +0000";
layers = (
{
.lastUpdate = 772655612.935;
layerId = m01;
shapes = (
{
closed = 1;
nodes = (
(685,0,l),
(177,700,l),
(75,700,l),
(583,0,l)
);
},
{
closed = 1;
nodes = (
(389,352,l),
(665,700,l),
(613,700,l),
(363,387,l)
);
},
{
closed = 1;
nodes = (
(353,387,l),
(45,0,l),
(101,0,l),
(379,352,l)
);
}
);
width = 730;
}
);
unicode = 88;
},
{
glyphname = Y;
lastChange = "2025-06-26 18:28:40 +0000";
layers = (
{
.lastUpdate = 772655612.936;
layerId = m01;
shapes = (
{
closed = 1;
nodes = (
(350,264,l),
(112,700,l),
(30,700,l),
(268,264,l)
);
},
{
closed = 1;
nodes = (
(350,0,l),
(350,275,l),
(268,275,l),
(268,0,l)
);
},
{
closed = 1;
nodes = (
(350,264,l),
(590,700,l),
(544,700,l),
(308,264,l)
);
}
);
width = 620;
}
);
unicode = 89;
},
{
glyphname = Z;
lastChange = "2025-06-26 18:28:40 +0000";
layers = (
{
.lastUpdate = 772655612.936;
layerId = m01;
shapes = (
{
closed = 1;
nodes = (
(50,0,l),
(600,0,l),
(600,36,l),
(145,36,l),
(570,664,l),
(570,700,l),
(51,700,l),
(51,664,l),
(476,664,l),
(51,36,l)
);
}
);
width = 650;
}
);
unicode = 90;
},
{
glyphname = a;
lastChange = "2025-06-26 18:28:40 +0000";
layers = (
{
.lastUpdate = 772655612.936;
layerId = m01;
shapes = (
{
closed = 1;
nodes = (
(450,0,l),
(450,202,l),
(368,202,l),
(368,0,l)
);
},
{
closed = 1;
nodes = (
(422,279,l),
(422,309,l),
(251,309,l),
(141,309,o),
(40,257,o),
(40,152,cs),
(40,-5,o),
(191,-16,o),
(261,-16,cs),
(342,-16,o),
(368,55,o),
(368,70,cs),
(368,138,l),
(368,72,o),
(327,14,o),
(262,14,cs),
(261,14,ls),
(204,14,o),
(123,21,o),
(123,134,cs),
(123,160,ls),
(123,222,o),
(154,279,o),
(251,279,c)
);
},
{
closed = 1;
nodes = (
(450,191,l),
(450,268,ls),
(450,463,o),
(371,515,o),
(261,515,cs),
(174,515,o),
(82,470,o),
(82,364,c),
(160,364,l),
(160,440,o),
(191,487,o),
(261,487,cs),
(358,487,o),
(368,419,o),
(368,267,cs),
(368,191,l)
);
}
);
width = 515;
}
);
unicode = 97;
},
{
glyphname = b;
lastChange = "2025-06-26 18:28:40 +0000";
layers = (
{
.lastUpdate = 772655612.937;
layerId = m01;
shapes = (
{
closed = 1;
nodes = (
(65,760,l),
(65,0,l),
(147,0,l),
(147,30,l),
(187,-2,o),
(236,-16,o),
(285,-16,cs),
(385,-16,o),
(505,66,o),
(505,250,cs),
(505,436,o),
(385,516,o),
(285,516,cs),
(172,516,o),
(147,435,o),
(147,450,cs),
(147,760,l)
);
},
{
closed = 1;
nodes = (
(372,488,o),
(422,395,o),
(422,263,cs),
(422,227,ls),
(422,105,o),
(372,12,o),
(285,12,cs),
(176,12,o),
(152,63,o),
(147,125,c),
(147,362,ls),
(147,428,o),
(209,488,o),
(285,488,cs)
);
},
{
closed = 1;
nodes = (
(285,14,l),
(285,12,l)
);
}
);
width = 545;
}
);
unicode = 98;
},
{
glyphname = c;
lastChange = "2025-06-26 18:28:40 +0000";
layers = (
{
.lastUpdate = 772655612.937;
layerId = m01;
shapes = (
{
closed = 1;
nodes = (
(419,155,l),
(419,70,o),
(375,12,o),
(280,12,cs),
(173,12,o),
(123,105,o),
(123,227,cs),
(123,263,ls),
(123,395,o),
(173,488,o),
(280,488,cs),
(378,488,o),
(422,425,o),
(422,328,c),
(501,328,l),
(501,459,o),
(392,516,o),
(280,516,cs),
(150,516,o),
(40,436,o),
(40,250,cs),
(40,66,o),
(150,-16,o),
(280,-16,cs),
(387,-16,o),
(497,38,o),
(497,155,c)
);
}
);
width = 541;
}
);
unicode = 99;
},
{
glyphname = d;
lastChange = "2025-06-26 18:28:40 +0000";
layers = (
{
.lastUpdate = 772655612.937;
layerId = m01;
shapes = (
{
closed = 1;
nodes = (
(398,430,ls),
(398,415,o),
(351,512,o),
(260,516,cs),
(160,516,o),
(40,436,o),
(40,250,cs),
(40,66,o),
(160,-16,o),
(260,-16,cs),
(309,-16,o),
(358,-2,o),
(398,30,c),
(398,0,l),
(480,0,l),
(480,760,l),
(398,760,l)
);
},
{
closed = 1;
nodes = (
(336,488,o),
(398,428,o),
(398,362,cs),
(398,125,l),
(393,63,o),
(369,12,o),
(260,12,cs),
(173,12,o),
(123,105,o),
(123,227,cs),
(123,263,ls),
(123,395,o),
(173,488,o),
(260,488,cs)
);
},
{
closed = 1;
nodes = (
(260,14,l),
(260,12,l)
);
}
);
width = 545;
}
);
unicode = 100;
},
{
glyphname = e;
lastChange = "2025-06-26 18:28:40 +0000";
layers = (
{
.lastUpdate = 772655612.937;
layerId = m01;
shapes = (
{
closed = 1;
nodes = (
(434,238,l),
(434,270,l),
(100,270,l),
(100,238,l)
);
},
{
closed = 1;
nodes = (
(413,176,l),
(413,80,o),
(382,12,o),
(280,12,cs),
(173,12,o),
(123,105,o),
(123,227,cs),
(123,263,ls),
(123,395,o),
(173,488,o),
(270,488,cs),
(378,488,o),
(417,410,o),
(417,238,c),
(500,238,l),
(500,438,o),
(398,516,o),
(270,516,cs),
(150,516,o),
(40,436,o),
(40,250,cs),
(40,66,o),
(150,-16,o),
(280,-16,cs),
(393,-16,o),
(492,44,o),
(492,176,c)
);
}
);
width = 540;
}
);
unicode = 101;
},
{
glyphname = f;
lastChange = "2025-06-26 18:28:40 +0000";
layers = (
{
.lastUpdate = 772655612.938;
layerId = m01;
shapes = (
{
closed = 1;
nodes = (
(355,748,o),
(382,701,o),
(382,625,c),
(460,625,l),
(460,731,o),
(375,776,o),
(294,776,cs),
(293,776,ls),
(221,776,o),
(118,758,o),
(118,501,cs),
(118,0,l),
(200,0,l),
(200,500,ls),
(200,714,o),
(237,748,o),
(293,748,cs),
(294,748,ls)
);
},
{
closed = 1;
nodes = (
(40,470,l),
(278,470,l),
(278,500,l),
(40,500,l)
);
}
);
width = 318;
}
);
unicode = 102;
},
{
glyphname = g;
lastChange = "2025-06-26 18:28:40 +0000";
layers = (
{
.lastUpdate = 772655612.938;
layerId = m01;
shapes = (
{
closed = 1;
nodes = (
(390,224,o),
(370,147,o),
(263,147,cs),
(156,147,o),
(136,224,o),
(136,306,cs),
(136,326,ls),
(136,408,o),
(156,485,o),
(263,485,cs),
(370,485,o),
(390,408,o),
(390,326,cs),
(390,306,ls)
);
},
{
closed = 1;
nodes = (
(53,189,o),
(143,117,o),
(263,117,cs),
(383,117,o),
(473,189,o),
(473,314,cs),
(473,318,ls),
(473,443,o),
(383,515,o),
(263,515,cs),
(143,515,o),
(53,443,o),
(53,318,cs),
(53,314,ls)
);
},
{
closed = 1;
nodes = (
(39,113,o),
(40,39,o),
(135,0,c),
(53,-45,o),
(40,-74,o),
(40,-100,cs),
(40,-176,o),
(108,-216,o),
(263,-228,cs),
(292,-230,o),
(321,-228,o),
(350,-228,cs),
(438,-228,o),
(536,-181,o),
(536,-85,cs),
(536,-15,o),
(500,51,o),
(369,65,cs),
(318,70,o),
(266,65,o),
(215,65,cs),
(135,65,o),
(62,57,o),
(144,169,c),
(110,187,l)
);
},
{
closed = 1;
nodes = (
(229,-197,o),
(128,-203,o),
(128,-109,cs),
(128,-64,o),
(164,-19,o),
(204,-19,cs),
(235,-19,l),
(351,-18,ls),
(419,-17,o),
(496,-28,o),
(496,-85,cs),
(496,-179,o),
(411,-197,o),
(350,-197,cs),
(283,-197,ls)
);
},
{
closed = 1;
nodes = (
(361,461,l),
(517,431,l),
(517,500,l),
(350,500,l)
);
}
);
width = 546;
}
);
unicode = 103;
},
{
glyphname = h;
lastChange = "2025-06-26 18:28:40 +0000";
layers = (
{
.lastUpdate = 772655612.939;
layerId = m01;
shapes = (
{
closed = 1;
nodes = (
(147,0,l),
(147,760,l),
(65,760,l),
(65,0,l)
);
},
{
closed = 1;
nodes = (
(495,0,l),
(495,352,ls),
(495,469,o),
(422,516,o),
(305,516,cs),
(209,516,o),
(147,446,o),
(147,430,cs),
(147,362,l),
(147,428,o),
(220,486,o),
(295,486,cs),
(352,486,o),
(413,458,o),
(413,352,cs),
(413,0,l)
);
}
);
width = 560;
}
);
unicode = 104;
},
{
glyphname = i;
lastChange = "2025-06-26 18:28:40 +0000";
layers = (
{
.lastUpdate = 772655612.939;
layerId = m01;
shapes = (
{
closed = 1;
nodes = (
(152,0,l),
(152,500,l),
(70,500,l),
(70,0,l)
);
},
{
closed = 1;
nodes = (
(141,568,o),
(158,585,o),
(158,615,cs),
(158,645,o),
(141,661,o),
(112,661,cs),
(82,661,o),
(65,645,o),
(65,615,cs),
(65,585,o),
(82,568,o),
(112,568,cs)
);
}
);
width = 223;
}
);
unicode = 105;
},
{
glyphname = j;
lastChange = "2025-06-26 18:28:40 +0000";
layers = (
{
.lastUpdate = 772655612.939;
layerId = m01;
shapes = (
{
closed = 1;
nodes = (
(152,36,l),
(152,500,l),
(70,500,l),
(70,36,l)
);
},
{
closed = 1;
nodes = (
(141,568,o),
(158,585,o),
(158,615,cs),
(158,645,o),
(141,661,o),
(112,661,cs),
(82,661,o),
(65,645,o),
(65,615,cs),
(65,585,o),
(82,568,o),
(112,568,cs)
);
},
{
closed = 1;
nodes = (
(70,20,ls),
(70,-112,o),
(79,-200,o),
(2,-200,cs),
(-66,-200,o),
(-66,-153,o),
(-66,-77,c),
(-144,-77,l),
(-144,-183,o),
(-93,-228,o),
(2,-228,cs),
(92,-228,o),
(152,-156,o),
(152,19,cs),
(152,36,l),
(70,36,l)
);
}
);
width = 223;
}
);
unicode = 106;
},
{
glyphname = k;
lastChange = "2025-06-26 18:28:40 +0000";
layers = (
{
.lastUpdate = 772655612.94;
layerId = m01;
shapes = (
{
closed = 1;
nodes = (
(116,202,l),
(423,501,l),
(380,501,l),
(73,202,l)
);
},
{
closed = 1;
nodes = (
(65,760,l),
(65,0,l),
(147,0,l),
(147,760,l)
);
},
{
closed = 1;
nodes = (
(184,288,l),
(375,0,l),
(457,0,l),
(236,338,l)
);
}
);
width = 467;
}
);
unicode = 107;
},
{
glyphname = l;
lastChange = "2025-06-26 18:28:40 +0000";
layers = (
{
.lastUpdate = 772655612.94;
layerId = m01;
shapes = (
{
closed = 1;
nodes = (
(147,0,l),
(147,760,l),
(65,760,l),
(65,0,l)
);
}
);
width = 212;
}
);
unicode = 108;
},
{
glyphname = m;
lastChange = "2025-06-26 18:28:40 +0000";
layers = (
{
.lastUpdate = 772655612.94;
background = {
shapes = (
{
closed = 1;
nodes = (
(809,0,l),
(809,352,ls),
(809,469,o),
(736,516,o),
(619,516,cs),
(523,516,o),
(461,446,o),
(461,430,cs),
(461,362,l),
(461,430,o),
(534,486,o),
(609,486,cs),
(666,486,o),
(727,458,o),
(727,352,cs),
(727,0,l)
);
}
);
};
layerId = m01;
shapes = (
{
closed = 1;
nodes = (
(147,0,l),
(147,500,l),
(65,500,l),
(65,0,l)
);
},
{
closed = 1;
nodes = (
(481,0,l),
(481,352,ls),
(481,469,o),
(422,516,o),
(305,516,cs),
(209,516,o),
(147,446,o),
(147,430,cs),
(147,362,l),
(147,428,o),
(220,486,o),
(295,486,cs),
(352,486,o),
(400,458,o),
(400,352,cs),
(400,0,l)
);
},
{
closed = 1;
nodes = (
(481,0,l),
(481,352,ls),
(481,469,o),
(422,516,o),
(305,516,cs),
(209,516,o),
(147,446,o),
(147,430,cs),
(147,362,l),
(147,428,o),
(220,486,o),
(295,486,cs),
(352,486,o),
(399,458,o),
(399,352,cs),
(399,0,l)
);
},
{
closed = 1;
nodes = (
(829,0,l),
(829,352,ls),
(829,469,o),
(756,516,o),
(639,516,cs),
(543,516,o),
(476,442,o),
(473,416,c),
(481,362,l),
(481,430,o),
(554,486,o),
(629,486,cs),
(686,486,o),
(747,458,o),
(747,352,cs),
(747,0,l)
);
}
);
width = 894;
}
);
unicode = 109;
},
{
glyphname = n;
lastChange = "2025-06-26 18:28:40 +0000";
layers = (
{
.lastUpdate = 772655612.941;
layerId = m01;
shapes = (
{
closed = 1;
nodes = (
(147,0,l),
(147,500,l),
(65,500,l),
(65,0,l)
);
},
{
closed = 1;
nodes = (
(495,0,l),
(495,352,ls),
(495,469,o),
(422,516,o),
(305,516,cs),
(209,516,o),
(147,446,o),
(147,430,cs),
(147,362,l),
(147,428,o),
(220,486,o),
(295,486,cs),
(352,486,o),
(413,458,o),
(413,352,cs),
(413,0,l)
);
}
);
width = 560;
}
);
unicode = 110;
},
{
glyphname = o;
lastChange = "2025-06-26 18:28:40 +0000";
layers = (
{
.lastUpdate = 772655612.941;
layerId = m01;
shapes = (
{
closed = 1;
nodes = (
(183,12,o),
(123,105,o),
(123,227,cs),
(123,263,ls),
(123,395,o),
(183,488,o),
(290,488,cs),
(397,488,o),
(457,395,o),
(457,263,cs),
(457,227,ls),
(457,105,o),
(397,12,o),
(290,12,cs)
);
},
{
closed = 1;
nodes = (
(40,66,o),
(170,-16,o),
(290,-16,cs),
(410,-16,o),
(540,66,o),
(540,250,cs),
(540,436,o),
(410,516,o),
(290,516,cs),
(170,516,o),
(40,436,o),
(40,250,cs)
);
}
);
width = 580;
}
);
unicode = 111;
},
{
glyphname = p;
lastChange = "2025-06-26 18:28:40 +0000";
layers = (
{
.lastUpdate = 772655612.941;
layerId = m01;
shapes = (
{
closed = 1;
nodes = (
(65,495,l),
(65,-212,l),
(147,-212,l),
(147,30,l),
(187,-2,o),
(236,-16,o),
(285,-16,cs),
(385,-16,o),
(505,66,o),
(505,250,cs),
(505,436,o),
(385,516,o),
(285,516,cs),
(194,512,o),
(147,445,o),
(147,430,cs),
(147,495,l)
);
},
{
closed = 1;
nodes = (
(372,488,o),
(422,395,o),
(422,263,cs),
(422,227,ls),
(422,105,o),
(372,12,o),
(285,12,cs),
(176,12,o),
(152,63,o),
(147,125,c),
(147,362,ls),
(147,428,o),
(209,488,o),
(285,488,cs)
);
},
{
closed = 1;
nodes = (
(285,14,l),
(285,12,l)
);
}
);
width = 545;
}
);
unicode = 112;
},
{
glyphname = q;
lastChange = "2025-06-26 18:28:40 +0000";
layers = (
{
.lastUpdate = 772655612.941;
layerId = m01;
shapes = (
{
closed = 1;
nodes = (
(398,430,ls),
(398,415,o),
(351,512,o),
(260,516,cs),
(160,516,o),
(40,436,o),
(40,250,cs),
(40,66,o),
(160,-16,o),
(260,-16,cs),
(309,-16,o),
(358,-2,o),
(398,30,c),
(398,-212,l),
(480,-212,l),
(480,500,l),
(398,500,l)
);
},
{
closed = 1;
nodes = (
(336,488,o),
(398,428,o),
(398,362,cs),
(398,125,l),
(393,63,o),
(369,12,o),
(260,12,cs),
(173,12,o),
(123,105,o),
(123,227,cs),
(123,263,ls),
(123,395,o),
(173,488,o),
(260,488,cs)
);
},
{
closed = 1;
nodes = (
(260,14,l),
(260,12,l)
);
}
);
width = 545;
}
);
unicode = 113;
},
{
glyphname = r;
lastChange = "2025-06-26 18:28:40 +0000";
layers = (
{
.lastUpdate = 772655612.942;
layerId = m01;
shapes = (
{
closed = 1;
nodes = (
(147,0,l),
(147,500,l),
(65,500,l),
(65,0,l)
);
},
{
closed = 1;
nodes = (
(147,428,o),
(196,486,o),
(261,486,cs),
(308,486,o),
(323,458,o),
(323,365,c),
(405,365,l),
(405,469,o),
(378,516,o),
(271,516,cs),
(185,516,o),
(147,446,o),
(147,430,c),
(147,362,l)
);
}
);
width = 425;
}
);
unicode = 114;
},
{
glyphname = s;
lastChange = "2025-06-26 18:28:40 +0000";
layers = (
{
.lastUpdate = 772655612.942;
layerId = m01;
shapes = (
{
closed = 1;
nodes = (
(408,392,l),
(408,498,o),
(302,516,o),
(239,516,cs),
(164,516,o),
(62,474,o),
(62,374,cs),
(62,310,o),
(124,266,o),
(166,248,cs),
(251,211,ls),
(287,195,o),
(378,165,o),
(378,109,cs),
(378,39,o),
(291,16,o),
(241,16,cs),
(141,16,o),
(113,54,o),
(113,132,c),
(45,132,l),
(45,14,o),
(165,-16,o),
(252,-16,cs),
(322,-16,o),
(433,29,o),
(433,123,cs),
(433,231,o),
(344,254,o),
(304,272,cs),
(222,309,ls),
(186,325,o),
(120,346,o),
(120,402,cs),
(120,451,o),
(186,484,o),
(239,484,cs),
(310,484,o),
(341,447,o),
(341,392,c)
);
}
);
width = 478;
}
);
unicode = 115;
},
{
glyphname = t;
lastChange = "2025-06-26 18:29:36 +0000";
layers = (
{
.lastUpdate = 772655370.361;
layerId = m01;
shapes = (
{
closed = 1;
nodes = (
(288,0,l),
(288,28,l),
(243,28,ls),
(171,30,o),
(170,85,o),
(170,214,cs),
(170,470,l),
(283,470,ls),
(286,470,o),
(288,472,o),
(288,475,cs),
(288,495,ls),
(288,498,o),
(286,500,o),
(283,500,cs),
(170,500,l),
(170,655,ls),
(170,658,o),
(168,660,o),
(165,660,cs),
(93,660,ls),
(90,660,o),
(88,658,o),
(88,655,cs),
(88,500,l),
(15,500,ls),
(12,500,o),
(10,498,o),
(10,495,cs),
(10,475,ls),
(10,472,o),
(12,470,o),
(15,470,cs),
(88,470,l),
(88,213,ls),
(88,41,o),
(155,1,o),
(243,0,cs)
);
}
);
width = 298;
}
);
unicode = 116;
},
{
glyphname = u;
lastChange = "2025-06-26 18:28:40 +0000";
layers = (
{
.lastUpdate = 772655612.943;
layerId = m01;
shapes = (
{
closed = 1;
nodes = (
(403,130,l),
(398,68,o),
(374,17,o),
(265,17,cs),
(208,17,o),
(147,45,o),
(147,151,cs),
(147,503,l),
(65,503,l),
(65,151,ls),
(65,60,o),
(104,-16,o),
(265,-16,cs),
(314,-16,o),
(363,3,o),
(403,35,c),
(403,0,l),
(485,0,l),
(485,503,l),
(403,503,l)
);
}
);
width = 550;
}
);
unicode = 117;
},
{
glyphname = v;
lastChange = "2025-06-26 18:28:40 +0000";
layers = (
{
.lastUpdate = 772655612.943;
layerId = m01;
shapes = (
{
closed = 1;
nodes = (
(290,0,l),
(112,500,l),
(25,500,l),
(203,0,l)
);
},
{
closed = 1;
nodes = (
(258,0,l),
(290,0,l),
(470,500,l),
(434,500,l)
);
}
);
width = 495;
}
);
unicode = 118;
},
{
glyphname = w;
lastChange = "2025-06-26 18:28:40 +0000";
layers = (
{
.lastUpdate = 772655612.944;
layerId = m01;
shapes = (
{
closed = 1;
nodes = (
(260,0,l),
(102,500,l),
(15,500,l),
(173,0,l)
);
},
{
closed = 1;
nodes = (
(228,0,l),
(260,0,l),
(420,500,l),
(384,500,l)
);
},
{
closed = 1;
nodes = (
(578,0,l),
(420,500,l),
(384,500,l),
(360,422,l),
(491,0,l)
);
},
{
closed = 1;
nodes = (
(546,0,l),
(578,0,l),
(738,500,l),
(702,500,l)
);
}
);
width = 753;
}
);
unicode = 119;
},
{
glyphname = x;
lastChange = "2025-06-26 18:28:40 +0000";
layers = (
{
.lastUpdate = 772655612.944;
layerId = m01;
shapes = (
{
closed = 1;
nodes = (
(533,0,l),
(134,500,l),
(25,500,l),
(424,0,l)
);
},
{
closed = 1;
nodes = (
(306,273,l),
(487,500,l),
(448,500,l),
(267,273,l)
);
},
{
closed = 1;
nodes = (
(253,273,l),
(35,0,l),
(74,0,l),
(292,273,l)
);
}
);
width = 558;
}
);
unicode = 120;
},
{
glyphname = y;
lastChange = "2025-06-26 18:28:40 +0000";
layers = (
{
.lastUpdate = 772655612.944;
layerId = m01;
shapes = (
{
closed = 1;
nodes = (
(296,0,l),
(112,500,l),
(25,500,l),
(235,-76,l)
);
},
{
closed = 1;
nodes = (
(76,-212,l),
(195,-212,o),
(230,-167,o),
(294,0,cs),
(486,500,l),
(450,500,l),
(261,0,ls),
(215,-121,o),
(206,-181,o),
(76,-180,c)
);
}
);
width = 511;
}
);
unicode = 121;
},
{
glyphname = z;
lastChange = "2025-06-26 18:28:40 +0000";
layers = (
{
.lastUpdate = 772655612.945;
layerId = m01;
shapes = (
{
closed = 1;
nodes = (
(490,32,l),
(90,32,l),
(90,0,l),
(490,0,l)
);
},
{
closed = 1;
nodes = (
(465,500,l),
(91,500,l),
(91,470,l),
(465,470,l)
);
},
{
closed = 1;
nodes = (
(368,470,l),
(91,32,l),
(188,32,l),
(465,470,l)
);
}
);
width = 580;
}
);
unicode = 122;
},
{
glyphname = g.ss01;
lastChange = "2025-06-26 18:28:40 +0000";
layers = (
{
.lastUpdate = 772655612.945;
layerId = m01;
shapes = (
{
closed = 1;
nodes = (
(390,224,o),
(370,147,o),
(263,147,cs),
(156,147,o),
(136,224,o),
(136,306,cs),
(136,326,ls),
(136,408,o),
(156,485,o),
(263,485,cs),
(370,485,o),
(390,408,o),
(390,326,cs),
(390,306,ls)
);
},
{
closed = 1;
nodes = (
(53,189,o),
(143,117,o),
(263,117,cs),
(383,117,o),
(473,189,o),
(473,314,cs),
(473,318,ls),
(473,443,o),
(383,515,o),
(263,515,cs),
(143,515,o),
(53,443,o),
(53,318,cs),
(53,314,ls)
);
},
{
closed = 1;
nodes = (
(39,113,o),
(40,39,o),
(135,0,c),
(53,-45,o),
(40,-74,o),
(40,-100,cs),
(40,-176,o),
(108,-228,o),
(263,-228,cs),
(350,-228,ls),
(438,-228,o),
(536,-181,o),
(536,-85,cs),
(536,-15,o),
(499,65,o),
(349,65,cs),
(215,65,ls),
(135,65,o),
(62,57,o),
(144,169,c),
(110,187,l)
);
},
{
closed = 1;
nodes = (
(229,-197,o),
(128,-203,o),
(128,-109,cs),
(128,-64,o),
(164,-19,o),
(204,-19,cs),
(235,-19,l),
(331,-18,ls),
(419,-17,o),
(496,-28,o),
(496,-85,cs),
(496,-179,o),
(411,-197,o),
(350,-197,cs),
(283,-197,ls)
);
},
{
closed = 1;
nodes = (
(361,461,l),
(517,431,l),
(517,500,l),
(350,500,l)
);
}
);
width = 556;
}
);
},
{
glyphname = period;
lastChange = "2025-06-26 18:28:40 +0000";
layers = (
{
.lastUpdate = 772655320.446;
layerId = m01;
shapes = (
{
closed = 1;
nodes = (
(111,-16,o),
(132,4,o),
(132,40,cs),
(132,76,o),
(111,96,o),
(76,96,cs),
(40,96,o),
(20,76,o),
(20,40,cs),
(20,4,o),
(40,-16,o),
(76,-16,cs)
);
}
);
width = 152;
}
);
unicode = 46;
},
